<svg width="202" height="24" viewBox="0 0 202 24" fill="none" xmlns="http://www.w3.org/2000/svg">
<path d="M4.832 18V2.64H0.08L0.2 1.2H11.072L10.952 2.64H6.344V18H4.832ZM14.6853 7.368C15.9493 6.456 17.1653 5.976 18.3333 5.928C19.3253 5.928 20.0853 6.048 20.6133 6.288C21.1413 6.528 21.5733 6.872 21.9093 7.32C22.2453 7.752 22.4133 8.368 22.4133 9.168V18H20.8533V9.576C20.8533 8.984 20.7253 8.528 20.4693 8.208C19.9573 7.616 19.1733 7.32 18.1173 7.32C17.0773 7.368 15.9333 7.704 14.6853 8.328V18H13.1253V0.119998L14.6853 -1.43051e-06V7.368ZM24.599 7.296C26.343 6.432 27.871 5.976 29.183 5.928C30.223 5.928 31.023 6.064 31.583 6.336C32.159 6.592 32.623 6.96 32.975 7.44C33.327 7.904 33.503 8.56 33.503 9.408V18H31.943V17.088C29.751 17.76 28.343 18.096 27.719 18.096C27.687 18.096 27.663 18.096 27.647 18.096C26.207 18.096 25.223 17.656 24.695 16.776C24.503 16.456 24.391 16.144 24.359 15.84C24.343 15.536 24.335 15.28 24.335 15.072C24.335 14.496 24.559 13.984 25.007 13.536C25.455 13.072 25.991 12.76 26.615 12.6C27.671 12.328 29.447 12.088 31.943 11.88V9.936C31.943 8.192 31.031 7.32 29.207 7.32C27.927 7.32 26.535 7.696 25.031 8.448L24.599 7.296ZM25.799 15.264C25.799 16.416 26.591 16.992 28.175 16.992C29.439 16.992 30.695 16.72 31.943 16.176V12.744C29.447 13.096 27.903 13.368 27.311 13.56C26.303 13.88 25.799 14.448 25.799 15.264ZM37.9649 5.88V18H36.4049V6L37.9649 5.88ZM37.1249 2.784C36.8049 2.784 36.5569 2.68 36.3809 2.472C36.2209 2.264 36.1409 2 36.1409 1.68C36.1409 1.36 36.2289 1.104 36.4049 0.912C36.5969 0.704 36.8529 0.599999 37.1729 0.599999C37.4929 0.599999 37.7489 0.704 37.9409 0.912C38.1489 1.104 38.2529 1.376 38.2529 1.728C38.2529 2.08 38.1409 2.344 37.9169 2.52C37.7089 2.696 37.4449 2.784 37.1249 2.784ZM48.5874 18V1.2H50.2194L56.3874 13.488L62.5554 1.2H64.1874V18H62.6754V3.984L57.2034 14.856H55.5714L50.0994 3.984V18H48.5874ZM69.7933 16.464C70.1453 16.592 70.7053 16.656 71.4733 16.656C72.2413 16.656 73.2333 16.344 74.4493 15.72V6L76.0093 5.88V18H74.4493V16.704C73.2653 17.616 72.0573 18.072 70.8253 18.072C69.2893 18.072 68.1773 17.616 67.4893 16.704C67.1373 16.256 66.9613 15.632 66.9613 14.832V6L68.5213 5.88V14.424C68.5213 15.416 68.9453 16.096 69.7933 16.464ZM85.8185 7.584C85.2425 7.392 84.4585 7.296 83.4665 7.296C82.4745 7.296 81.7065 7.472 81.1625 7.824C80.6185 8.176 80.3465 8.616 80.3465 9.144C80.3465 9.656 80.5065 10.032 80.8265 10.272C81.1465 10.512 81.5465 10.72 82.0265 10.896C82.5065 11.056 83.0265 11.216 83.5865 11.376C84.1625 11.536 84.6905 11.744 85.1705 12C86.2905 12.576 86.8505 13.432 86.8505 14.568C86.8505 15.704 86.4585 16.576 85.6745 17.184C84.9065 17.792 83.7785 18.096 82.2905 18.096C81.5385 18.096 80.8105 18.024 80.1065 17.88C79.4185 17.72 78.8905 17.504 78.5225 17.232L79.0505 15.96C79.4185 16.28 80.1625 16.512 81.2825 16.656C81.6345 16.704 81.9945 16.728 82.3625 16.728C83.1945 16.728 83.8905 16.56 84.4505 16.224C85.0105 15.872 85.2905 15.344 85.2905 14.64C85.2905 14.16 85.1305 13.784 84.8105 13.512C84.4905 13.24 84.0905 13.016 83.6105 12.84C83.1305 12.648 82.6025 12.48 82.0265 12.336C81.4665 12.192 80.9465 12.008 80.4665 11.784C79.9865 11.544 79.5865 11.24 79.2665 10.872C78.9465 10.488 78.7865 9.976 78.7865 9.336C78.7865 8.296 79.1865 7.464 79.9865 6.84C80.7865 6.216 81.8585 5.904 83.2025 5.904C83.5385 5.904 83.8825 5.928 84.2345 5.976C84.5865 6.008 84.9065 6.04 85.1945 6.072L86.2025 6.24L85.8185 7.584ZM90.7696 5.88V18H89.2096V6L90.7696 5.88ZM89.9296 2.784C89.6096 2.784 89.3616 2.68 89.1856 2.472C89.0256 2.264 88.9456 2 88.9456 1.68C88.9456 1.36 89.0336 1.104 89.2096 0.912C89.4016 0.704 89.6576 0.599999 89.9776 0.599999C90.2976 0.599999 90.5536 0.704 90.7456 0.912C90.9536 1.104 91.0576 1.376 91.0576 1.728C91.0576 2.08 90.9456 2.344 90.7216 2.52C90.5136 2.696 90.2496 2.784 89.9296 2.784ZM101.454 7.608C100.798 7.4 100.126 7.296 99.4383 7.296C98.0463 7.296 96.9263 7.744 96.0783 8.64C95.2463 9.536 94.8303 10.8 94.8303 12.432C94.8303 15.28 96.1503 16.704 98.7903 16.704C99.8463 16.704 100.934 16.528 102.054 16.176C102.278 16.112 102.414 16.064 102.462 16.032L102.846 17.328C102.286 17.664 101.27 17.904 99.7983 18.048C99.3823 18.08 98.9423 18.096 98.4783 18.096C97.1183 18.096 95.9983 17.76 95.1183 17.088C93.8863 16.16 93.2703 14.632 93.2703 12.504C93.2703 10.376 93.8383 8.744 94.9743 7.608C96.1263 6.456 97.6063 5.88 99.4143 5.88C99.9903 5.88 100.598 5.96 101.238 6.12C101.894 6.264 102.398 6.496 102.75 6.816V9.96L101.574 10.128L101.454 7.608ZM126.704 9.936C126.704 8.192 125.792 7.32 123.968 7.32C122.672 7.32 121.272 7.696 119.768 8.448L119.336 7.296C119.448 7.248 119.656 7.152 119.96 7.008C121.464 6.32 122.792 5.96 123.944 5.928C124.984 5.928 125.784 6.064 126.344 6.336C126.92 6.592 127.384 6.96 127.736 7.44C128.088 7.904 128.264 8.56 128.264 9.408V16.872C128.28 17.16 128.384 17.36 128.576 17.472C128.784 17.568 128.96 17.616 129.104 17.616C129.264 17.616 129.448 17.6 129.656 17.568C129.88 17.52 130.184 17.368 130.568 17.112C130.952 16.856 131.304 16.496 131.624 16.032C132.392 14.928 132.776 13.52 132.776 11.808C132.776 8.576 131.88 6.12 130.088 4.44C128.504 2.968 126.416 2.232 123.824 2.232C122.496 2.232 121.264 2.496 120.128 3.024C119.008 3.552 118.032 4.272 117.2 5.184C116.384 6.096 115.744 7.176 115.28 8.424C114.816 9.656 114.584 11.048 114.584 12.6C114.584 14.152 114.816 15.528 115.28 16.728C115.76 17.912 116.408 18.88 117.224 19.632C118.824 21.056 120.984 21.768 123.704 21.768C124.952 21.768 126.112 21.512 127.184 21L127.88 22.2C126.744 22.84 125.192 23.16 123.224 23.16C121.992 23.16 120.736 22.952 119.456 22.536C118.192 22.136 117.08 21.504 116.12 20.64C114.056 18.752 113.024 15.968 113.024 12.288C113.024 10.608 113.304 9.072 113.864 7.68C114.424 6.272 115.184 5.064 116.144 4.056C117.12 3.048 118.264 2.264 119.576 1.704C120.904 1.128 122.312 0.839999 123.8 0.839999C126.888 0.839999 129.368 1.712 131.24 3.456C133.304 5.376 134.336 8.104 134.336 11.64C134.336 14.024 133.704 15.896 132.44 17.256C131.4 18.376 130.208 18.936 128.864 18.936C128.288 18.936 127.792 18.768 127.376 18.432C126.976 18.112 126.752 17.664 126.704 17.088C125.168 17.76 123.768 18.096 122.504 18.096C120.392 18.096 119.256 17.256 119.096 15.576C119.096 15.48 119.096 15.328 119.096 15.12C119.096 14.896 119.152 14.632 119.264 14.328C119.376 14.008 119.6 13.68 119.936 13.344C120.288 12.992 120.856 12.72 121.64 12.528C122.44 12.32 124.128 12.128 126.704 11.952V9.936ZM122.936 16.992C124.104 16.992 125.36 16.72 126.704 16.176V12.744C124.192 13.112 122.64 13.384 122.048 13.56C121.04 13.896 120.536 14.48 120.536 15.312C120.536 15.952 120.824 16.416 121.4 16.704C121.768 16.896 122.28 16.992 122.936 16.992ZM145.644 18V1.2H147.156V8.952H155.316V1.2H156.828V18H155.316V10.392H147.156V18H145.644ZM159.702 14.928C159.414 14.16 159.27 13.264 159.27 12.24C159.27 10.272 159.822 8.728 160.926 7.608C162.03 6.472 163.414 5.904 165.078 5.904C167.686 5.904 169.398 6.96 170.214 9.072C170.518 9.84 170.67 10.736 170.67 11.76C170.67 13.728 170.118 15.28 169.014 16.416C167.91 17.536 166.526 18.096 164.862 18.096C162.254 18.096 160.534 17.04 159.702 14.928ZM160.83 12.072C160.83 13.544 161.206 14.688 161.958 15.504C162.726 16.304 163.71 16.704 164.91 16.704C166.11 16.704 167.11 16.28 167.91 15.432C168.71 14.568 169.11 13.4 169.11 11.928C169.11 10.456 168.734 9.32 167.982 8.52C167.23 7.704 166.246 7.296 165.03 7.296C163.83 7.296 162.83 7.728 162.03 8.592C161.23 9.44 160.83 10.6 160.83 12.072ZM177.076 7.32C176.18 7.368 175.212 7.664 174.172 8.208V18H172.612V6L174.172 5.88V7.224C175.244 6.408 176.284 5.976 177.292 5.928C178.988 5.928 180.156 6.352 180.796 7.2C182.012 6.4 183.188 5.976 184.324 5.928C185.3 5.928 186.052 6.048 186.58 6.288C187.108 6.528 187.54 6.872 187.876 7.32C188.228 7.752 188.404 8.368 188.404 9.168V18H186.844V9.576C186.844 8.984 186.708 8.528 186.436 8.208C185.94 7.616 185.236 7.32 184.324 7.32C183.364 7.32 182.34 7.608 181.252 8.184C181.332 8.504 181.372 8.832 181.372 9.168V18H179.812V9.576C179.812 8.984 179.684 8.528 179.428 8.208C178.916 7.616 178.132 7.32 177.076 7.32ZM192.732 12.48C192.732 15.296 194.076 16.704 196.764 16.704C197.9 16.704 198.94 16.552 199.884 16.248C200.124 16.168 200.292 16.104 200.388 16.056L200.748 17.328C200.188 17.664 199.172 17.904 197.7 18.048C197.284 18.08 196.844 18.096 196.38 18.096C195.036 18.096 193.916 17.76 193.02 17.088C191.788 16.176 191.172 14.656 191.172 12.528C191.172 10.4 191.724 8.768 192.828 7.632C193.948 6.48 195.3 5.904 196.884 5.904C198.468 5.904 199.66 6.416 200.46 7.44C201.068 8.256 201.372 9.336 201.372 10.68C201.372 11 201.356 11.336 201.324 11.688H192.756C192.74 11.816 192.732 11.952 192.732 12.096V12.48ZM196.98 7.392C195.988 7.392 195.14 7.696 194.436 8.304C193.732 8.896 193.244 9.664 192.972 10.608H199.956C199.876 8.832 199.188 7.8 197.892 7.512C197.604 7.432 197.3 7.392 196.98 7.392Z" fill="white"/>
</svg>
